<svg xmlns="http://www.w3.org/2000/svg" width="8.81" height="9.02" viewBox="0 0 8.81 9.02">
  <path id="Path_1555" data-name="Path 1555" d="M10.311,959.362a.21.21,0,0,0-.21.21v1.783a.21.21,0,0,0,.42,0v-1.783A.21.21,0,0,0,10.311,959.362Zm4.2,0a.21.21,0,0,0-.21.21v1.783a.21.21,0,0,0,.42,0v-1.783A.21.21,0,0,0,14.506,959.362Zm-5.664.629a.841.841,0,0,0-.842.842v1.885h8.81v-1.885a.841.841,0,0,0-.842-.842H14.925v.895a.629.629,0,1,1-.839,0v-.895H10.727v.891a.63.63,0,1,1-.839.007v-.9ZM8,963.138v4.4a.841.841,0,0,0,.842.842h7.125a.841.841,0,0,0,.842-.842v-4.4Z" transform="translate(-8 -959.362)" fill="#e4e4e4"/>
</svg>
