<svg xmlns="http://www.w3.org/2000/svg" width="22.222" height="20" viewBox="0 0 22.222 20">
  <g id="noun_Home_2082119" transform="translate(55.541 90.224)">
    <g id="Group_1442" data-name="Group 1442" transform="translate(-55.652 -90.474)">
      <path id="Path_1501" data-name="Path 1501" d="M.9,12.182H2.664v7.267a.811.811,0,0,0,.792.8h5.3A.364.364,0,0,0,9,20.188V13.476h4.389V20.25h5.181a.811.811,0,0,0,.792-.8V12.182h2.194a.8.8,0,0,0,.549-1.355L11.991.481a.767.767,0,0,0-1.1,0L.348,10.827A.793.793,0,0,0,.9,12.182Z" transform="translate(0 0)" fill="#ffa700" fill-rule="evenodd"/>
    </g>
  </g>
</svg>
