<svg xmlns="http://www.w3.org/2000/svg" width="318.821" height="67.948" viewBox="0 0 318.821 67.948">
  <g id="LOGO" transform="translate(-25 -40.799)">
    <g id="Group_1127" data-name="Group 1127" transform="translate(25 40.799)">
      <path id="Path_495" data-name="Path 495" d="M-494.929,431.058a15.533,15.533,0,0,1,8.021,1.548,16.47,16.47,0,0,1,8.092,9.921q.035,12.771.07,25.542a26.762,26.762,0,0,0,3.166,6.755c1.017,1.548,2.751,3.82,3.166,3.588.241-.134-.12-1.019-.352-2.111a12.636,12.636,0,0,1,.7-7.248,10.554,10.554,0,0,1,5.7-5.066,11.445,11.445,0,0,1,9.077.281,11.255,11.255,0,0,1,5.348,5.77,12.6,12.6,0,0,1,.422,7.6c-2.084,10.274-17.819,19.515-19,20.194a31.091,31.091,0,0,1-10.2-4.5c-10.8-7.371-13.356-19.434-13.932-22.657Q-494.788,450.865-494.929,431.058Z" transform="translate(494.929 -430.36)" fill="#fccd00"/>
      <path id="Path_498" data-name="Path 498" d="M-494.929,431.058a12.832,12.832,0,0,1,7.24,1.548c5.341,2.951,7,8.8,7.3,9.921q.031,12.771.063,25.542a28.122,28.122,0,0,0,2.858,6.755c.918,1.548,2.483,3.82,2.858,3.588.217-.134-.109-1.019-.318-2.111a13.928,13.928,0,0,1,.635-7.248,9.835,9.835,0,0,1,5.144-5.066,9.413,9.413,0,0,1,8.193.281,10.987,10.987,0,0,1,4.827,5.77,13.89,13.89,0,0,1,.381,7.6c-1.881,10.274-16.083,19.515-17.147,20.194a26.743,26.743,0,0,1-9.209-4.5c-9.751-7.371-12.054-19.434-12.574-22.657Q-494.8,450.865-494.929,431.058Z" transform="translate(494.929 -431.017)" fill="#fae072"/>
      <path id="Path_496" data-name="Path 496" d="M-368.4,430.246q-.141,18.646-.281,37.292c-.164,2.056-1.415,14.992-12.806,23.642a33.366,33.366,0,0,1-22.8,6.473c4.633-3.127,16.538-12.111,19-26.879a33.211,33.211,0,0,0,.422-6.755l.281-22.516a16.117,16.117,0,0,1,5.207-7.74A16.393,16.393,0,0,1-368.4,430.246Z" transform="translate(434.05 -429.829)" fill="#fea41d"/>
      <path id="Path_497" data-name="Path 497" d="M-372.811,430.246q-.123,18.646-.247,37.292c-.144,2.056-1.241,14.992-11.232,23.642a26.567,26.567,0,0,1-20,6.473c4.064-3.127,14.505-12.111,16.663-26.879a37.786,37.786,0,0,0,.37-6.755l.247-22.516a16.507,16.507,0,0,1,4.567-7.74A13.143,13.143,0,0,1-372.811,430.246Z" transform="translate(438.46 -430.157)" fill="#fccd00"/>
    </g>
    <text id="UVE" transform="translate(109.547 94.347)" fill="#f5f5f5" font-size="53" font-family="Muli-Black, Muli" font-weight="800" letter-spacing="0.01em"><tspan x="0" y="0">UVE</tspan></text>
    <text id="NTO" transform="translate(226.821 94.347)" fill="#fccd00" font-size="53" font-family="Muli-Black, Muli" font-weight="800" letter-spacing="0.01em"><tspan x="0" y="0">NTO</tspan></text>
  </g>
</svg>
