<svg xmlns="http://www.w3.org/2000/svg" width="118" height="25.201" viewBox="0 0 118 25.201">
  <g id="LOGO" transform="translate(-25 -40.799)">
    <g id="Group_1127" data-name="Group 1127" transform="translate(25 40.799)">
      <path id="Path_495" data-name="Path 495" d="M-494.929,431.032a5.7,5.7,0,0,1,2.941.568,6.039,6.039,0,0,1,2.967,3.638q.013,4.683.026,9.365a9.813,9.813,0,0,0,1.161,2.477c.373.568,1.009,1.4,1.161,1.316.088-.049-.044-.374-.129-.774a4.633,4.633,0,0,1,.258-2.657,3.87,3.87,0,0,1,2.09-1.857,4.2,4.2,0,0,1,3.328.1,4.127,4.127,0,0,1,1.961,2.116,4.619,4.619,0,0,1,.155,2.786c-.764,3.767-6.534,7.156-6.966,7.4a11.4,11.4,0,0,1-3.741-1.651,12.9,12.9,0,0,1-5.108-8.307Z" transform="translate(494.929 -430.776)" fill="#fccd00"/>
      <path id="Path_498" data-name="Path 498" d="M-494.929,431.032a4.7,4.7,0,0,1,2.655.568,6.008,6.008,0,0,1,2.678,3.638q.012,4.683.023,9.365a10.312,10.312,0,0,0,1.048,2.477c.336.568.91,1.4,1.048,1.316.08-.049-.04-.374-.117-.774a5.107,5.107,0,0,1,.233-2.657,3.606,3.606,0,0,1,1.886-1.857,3.452,3.452,0,0,1,3,.1,4.029,4.029,0,0,1,1.77,2.116,5.093,5.093,0,0,1,.14,2.786c-.69,3.767-5.9,7.156-6.287,7.4a9.806,9.806,0,0,1-3.377-1.651c-3.575-2.7-4.42-7.126-4.611-8.307Z" transform="translate(494.929 -431.017)" fill="#fae072"/>
      <path id="Path_496" data-name="Path 496" d="M-391.128,430.233q-.052,6.837-.1,13.674a12.416,12.416,0,0,1-4.7,8.669,12.234,12.234,0,0,1-8.359,2.374c1.7-1.146,6.064-4.441,6.966-9.855a12.175,12.175,0,0,0,.155-2.477l.1-8.256a5.91,5.91,0,0,1,1.909-2.838A6.011,6.011,0,0,1-391.128,430.233Z" transform="translate(415.199 -430.08)" fill="#fea41d"/>
      <path id="Path_497" data-name="Path 497" d="M-392.745,430.233q-.045,6.837-.09,13.674a13.124,13.124,0,0,1-4.118,8.669,9.741,9.741,0,0,1-7.332,2.374,15.645,15.645,0,0,0,6.11-9.855,13.853,13.853,0,0,0,.136-2.477l.09-8.256a6.053,6.053,0,0,1,1.675-2.838A4.819,4.819,0,0,1-392.745,430.233Z" transform="translate(416.816 -430.201)" fill="#fccd00"/>
    </g>
    <text id="UVE" transform="translate(56 61)" fill="#f5f5f5" font-size="20" font-family="Muli-Black, Muli" font-weight="800" letter-spacing="0.01em"><tspan x="0" y="0">UVE</tspan></text>
    <text id="NTO" transform="translate(99 61)" fill="#fccd00" font-size="20" font-family="Muli-Black, Muli" font-weight="800" letter-spacing="0.01em"><tspan x="0" y="0">NTO</tspan></text>
  </g>
</svg>
