<svg xmlns="http://www.w3.org/2000/svg" xmlns:xlink="http://www.w3.org/1999/xlink" width="20" height="20" viewBox="0 0 20 20">
  <defs>
    <linearGradient id="linear-gradient" x1="0.5" y1="1.004" x2="0.5" y2="0.004" gradientUnits="objectBoundingBox">
      <stop offset="0" stop-color="#fff"/>
      <stop offset="1" stop-color="#fff"/>
    </linearGradient>
  </defs>
  <path id="menu" d="M6.906,9.219H2.313A2.315,2.315,0,0,1,0,6.906V2.313A2.315,2.315,0,0,1,2.313,0H6.906A2.315,2.315,0,0,1,9.219,2.313V6.906A2.315,2.315,0,0,1,6.906,9.219ZM2.313,1.563a.751.751,0,0,0-.75.75V6.906a.751.751,0,0,0,.75.75H6.906a.751.751,0,0,0,.75-.75V2.313a.751.751,0,0,0-.75-.75ZM17.656,9.219H13.125a2.346,2.346,0,0,1-2.344-2.344V2.344A2.346,2.346,0,0,1,13.125,0h4.531A2.346,2.346,0,0,1,20,2.344V6.875A2.346,2.346,0,0,1,17.656,9.219ZM13.125,1.563a.782.782,0,0,0-.781.781V6.875a.782.782,0,0,0,.781.781h4.531a.782.782,0,0,0,.781-.781V2.344a.782.782,0,0,0-.781-.781ZM6.906,20H2.313A2.315,2.315,0,0,1,0,17.687V13.094a2.315,2.315,0,0,1,2.313-2.313H6.906a2.315,2.315,0,0,1,2.313,2.313v4.593A2.315,2.315,0,0,1,6.906,20ZM2.313,12.344a.751.751,0,0,0-.75.75v4.593a.751.751,0,0,0,.75.75H6.906a.751.751,0,0,0,.75-.75V13.094a.751.751,0,0,0-.75-.75ZM17.656,20H13.125a2.346,2.346,0,0,1-2.344-2.344V13.125a2.346,2.346,0,0,1,2.344-2.344h4.531A2.346,2.346,0,0,1,20,13.125v4.531A2.346,2.346,0,0,1,17.656,20Zm-4.531-7.656a.782.782,0,0,0-.781.781v4.531a.782.782,0,0,0,.781.781h4.531a.782.782,0,0,0,.781-.781V13.125a.782.782,0,0,0-.781-.781Z" fill="url(#linear-gradient)"/>
</svg>
