<svg xmlns="http://www.w3.org/2000/svg" width="24.999" height="25" viewBox="0 0 24.999 25">
  <g id="ping-pong" transform="translate(-0.012 0)">
    <g id="Group_1154" data-name="Group 1154" transform="translate(0.012 0)">
      <path id="Path_1147" data-name="Path 1147" d="M110.131,5.7a7.372,7.372,0,0,0-1.923-3.492A7.371,7.371,0,0,0,104.717.284,10.655,10.655,0,0,0,100.589.13a13.923,13.923,0,0,0-7.695,3.818,10.309,10.309,0,0,0-1.668,2.16L104.308,19.19a10.311,10.311,0,0,0,2.16-1.668,13.923,13.923,0,0,0,3.818-7.695,10.657,10.657,0,0,0-.155-4.127Z" transform="translate(-86.939 0)" fill="#fff"/>
      <path id="Path_1148" data-name="Path 1148" d="M3.843,153.126a8.038,8.038,0,0,0-.435,1.981,8.981,8.981,0,0,0,1.459,5.6.737.737,0,0,0,.1.128L.733,165.067a2.461,2.461,0,0,0,3.481,3.481l4.237-4.237a.736.736,0,0,0,.128.1,9.158,9.158,0,0,0,4.888,1.49q.355,0,.708-.031a8.04,8.04,0,0,0,1.981-.435Z" transform="translate(-0.012 -145.792)" fill="#fff"/>
    </g>
    <g id="Group_1155" data-name="Group 1155" transform="translate(18.612 18.601)">
      <path id="Path_1149" data-name="Path 1149" d="M385.211,388.423a3.2,3.2,0,1,1,3.2-3.2A3.2,3.2,0,0,1,385.211,388.423Z" transform="translate(-382.012 -382.024)" fill="#fff"/>
    </g>
  </g>
</svg>
