<svg xmlns="http://www.w3.org/2000/svg" width="20.806" height="21" viewBox="0 0 20.806 21">
  <g id="noun_Search_2738108" transform="translate(-4.971 -4.906)">
    <g id="noun_notification_2184955" transform="translate(-71.029 308.156)">
      <g id="Group_1445" data-name="Group 1445" transform="translate(76.5 -302.75)">
        <g id="Group_1444" data-name="Group 1444" transform="translate(0 0)">
          <path id="Path_1502" data-name="Path 1502" d="M42.169,36.677a2.136,2.136,0,1,1,0,4.272H26.64a2.136,2.136,0,1,1,0-4.272.2.2,0,0,0,.193-.195v-4.66a7.573,7.573,0,0,1,15.146,0v4.66A.192.192,0,0,0,42.169,36.677Zm0,1.165a1.357,1.357,0,0,1-1.358-1.36v-4.66a6.408,6.408,0,0,0-12.816,0v4.66a1.36,1.36,0,0,1-1.358,1.36.971.971,0,1,0,0,1.942H42.166a.971.971,0,1,0,0-1.942ZM31.1,40.949h1.165a2.136,2.136,0,1,0,4.272,0H37.7a3.3,3.3,0,1,1-6.6,0Z" transform="translate(-24.5 -24.25)" fill="#fff" stroke="#fff" stroke-width="1"/>
        </g>
      </g>
    </g>
  </g>
</svg>
