<svg xmlns="http://www.w3.org/2000/svg" width="21.899" height="21.032" viewBox="0 0 21.899 21.032">
  <g id="noun_Star_1683883" transform="translate(-198.634 55.1)">
    <path id="Path_1500" data-name="Path 1500" d="M24.122,28.85a1.327,1.327,0,0,1-.724-.2l-4.675-2.436c-.066-.066-.132-.066-.263,0l-4.675,2.5a1.5,1.5,0,0,1-1.646-.132,1.482,1.482,0,0,1-.593-1.514l.922-5.2c0-.066,0-.2-.066-.2L8.649,17.986a1.444,1.444,0,0,1-.4-1.58A1.479,1.479,0,0,1,9.5,15.352l5.2-.724c.066,0,.132-.066.2-.132l2.3-4.741a1.545,1.545,0,0,1,2.765,0h0l2.3,4.741c.066.066.132.132.2.132l5.2.724a1.583,1.583,0,0,1,1.251,1.053,1.416,1.416,0,0,1-.4,1.58L24.78,21.673a.242.242,0,0,0-.066.2l.922,5.2a1.482,1.482,0,0,1-.593,1.514A1.646,1.646,0,0,1,24.122,28.85ZM18.591,24.9a1.327,1.327,0,0,1,.724.2l4.675,2.436c.132.066.2,0,.263,0a.342.342,0,0,0,.132-.263l-.922-5.2a1.51,1.51,0,0,1,.461-1.383L27.677,17a.4.4,0,0,0,.066-.263q0-.1-.2-.2l-5.2-.724a1.59,1.59,0,0,1-1.185-.856l-2.37-4.675h0a.234.234,0,0,0-.2-.132s-.2,0-.2.132l-2.3,4.741a1.484,1.484,0,0,1-1.185.856L9.7,16.6a.21.21,0,0,0-.2.2c0,.066-.066.132.066.263l3.753,3.687a1.51,1.51,0,0,1,.461,1.383l-.922,5.2a.342.342,0,0,0,.132.263c.066.066.132.066.263,0l4.675-2.436A.763.763,0,0,1,18.591,24.9Z" transform="translate(191 -63.5)" fill="#e4e4e4" stroke="#e4e4e4" stroke-width="1"/>
  </g>
</svg>
