<svg xmlns="http://www.w3.org/2000/svg" width="22" height="24.657" viewBox="0 0 22 24.657">
  <path id="Path_1484" data-name="Path 1484" d="M92.387,23.578a9.359,9.359,0,0,1-5-2.627,9.5,9.5,0,0,1-2.6-5.052,5.293,5.293,0,0,1,6.475,1.135A5.435,5.435,0,0,1,92.387,23.578Zm-1.294,1.307a10.913,10.913,0,0,1-4.814-2.816,11.057,11.057,0,0,1-2.784-4.864,5.433,5.433,0,0,0,1.123,6.542A5.3,5.3,0,0,0,91.093,24.885Zm-7.446,8.422c-2.339,0-4.011,1.477-5.487,2.78-1.63,1.44-3.043,2.689-5.122,2.041-.411-.306-.424-.556-.428-.641-.029-.569.653-1.332.988-1.613a.678.678,0,0,0,.1-.122,1.543,1.543,0,0,0,1.619-.362l10.65-8.859a7.7,7.7,0,0,1-2.452-1.665,7.8,7.8,0,0,1-1.645-2.478L73.1,33.151a1.57,1.57,0,0,0-.4,1.446.835.835,0,0,0-.1.054,4.141,4.141,0,0,0-1.558,2.91A2.456,2.456,0,0,0,72.251,39.5l.187.093a5.324,5.324,0,0,0,1.711.3c2.083,0,3.637-1.372,5.041-2.613S81.9,34.89,83.647,34.89c4.036,0,7.16,4.37,7.192,4.414a.773.773,0,0,0,1.09.187.8.8,0,0,0,.187-1.1C91.971,38.181,88.5,33.307,83.647,33.307Z" transform="translate(-71.043 -15.235)" fill="#fff"/>
</svg>
